<?xml version="1.0" encoding="utf-8"?>
<!DOCTYPE svg PUBLIC "-//W3C//DTD SVG 1.0//EN" "http://www.w3.org/TR/2001/REC-SVG-20010904/DTD/svg10.dtd">
<svg version="1.0" xmlns="http://www.w3.org/2000/svg" width="360px" height="360px" viewBox="0 0 360 360" preserveAspectRatio="xMidYMid meet">
 <g fill="#fffefe">
  <path d="M0 180 l0 -180 180 0 180 0 0 180 0 180 -180 0 -180 0 0 -180z m181.41 110.46 c2.21 -0.42 5.20 -1.16 6.64 -1.65 2.39 -0.81 2.95 -0.84 6.50 -0.67 4.71 0.25 25.49 -0.39 31.15 -0.95 l4.08 -0.42 1.37 0.91 c2.95 1.90 5.52 2.50 10.72 2.50 7.07 -0.04 13.39 -1.69 18.74 -4.96 9.11 -5.52 14.87 -18.98 13.11 -30.59 -0.67 -4.36 -1.79 -7.84 -3.87 -12.02 -1.55 -3.06 -4.92 -7.84 -6.68 -9.49 -0.67 -0.63 -0.91 -1.20 -0.91 -2.11 0.04 -1.23 0.14 -1.34 3.20 -3.02 4.15 -2.29 10.34 -6.93 13.78 -10.30 5.48 -5.38 9.18 -11.36 10.86 -17.65 1.05 -4.01 1.16 -13.32 0.14 -17.93 -1.48 -6.89 -4.25 -13.50 -7.70 -18.53 -1.44 -2.07 -2 -3.23 -2 -4.04 0 -1.13 0.07 -1.20 2.29 -1.83 1.23 -0.35 2.46 -0.88 2.67 -1.13 0.53 -0.63 0.11 -0.63 -2.67 0.04 -1.16 0.28 -2.64 0.53 -3.23 0.53 -1.13 0 -1.16 -0.07 -1.16 -1.41 0 -1.27 -0.07 -1.41 -0.88 -1.41 -0.77 0 -0.88 -0.14 -0.88 -1.23 0 -1.16 0.18 -1.37 2.14 -2.57 2.92 -1.79 6.01 -3.97 5.84 -4.15 -0.07 -0.07 -0.98 0.32 -2.04 0.91 -1.13 0.63 -2.43 1.05 -3.20 1.05 l-1.34 0 0 -2.81 c0 -3.69 -0.56 -8.79 -1.48 -13.18 -2.07 -10.16 -7.73 -21.38 -14.03 -27.67 -4.89 -4.96 -8.02 -5.63 -16.14 -3.52 -5.66 1.44 -10.20 3.20 -16.52 6.33 -6.64 3.27 -13.04 7.45 -16.38 10.69 l-2.50 2.43 -5.41 -0.21 c-4.82 -0.21 -5.73 -0.14 -8.19 0.49 -3.94 1.05 -4.82 0.98 -5.84 -0.39 -6.12 -8.30 -19.02 -15.29 -33.22 -18.04 -11.36 -2.21 -15.86 -0.25 -22.50 9.84 -3.06 4.61 -6.29 10.83 -8.26 15.89 -2.46 6.22 -4.57 16.59 -4.57 22.32 l0 2.11 -1.30 -0.14 c-0.74 -0.11 -1.65 -0.28 -2.04 -0.42 -1.34 -0.49 1.30 1.48 4.29 3.20 2.67 1.55 2.88 1.76 2.92 2.85 0 1.02 -0.11 1.13 -1.05 1.13 -0.98 0 -1.05 0.11 -1.05 1.23 0 1.09 -0.11 1.23 -0.91 1.23 -0.49 0 -2.25 -0.46 -3.90 -1.05 -3.34 -1.20 -3.90 -1.27 -3.34 -0.60 0.21 0.25 1.20 0.74 2.14 1.09 1.76 0.60 1.79 0.67 1.79 2 0 0.88 -0.46 2.25 -1.20 3.76 -1.65 3.27 -3.23 7.91 -3.87 11.32 -1.48 7.63 0.14 16.17 4.75 25.21 1.02 2 1.72 3.87 1.72 4.54 0 1.09 -0.18 1.27 -2.53 2.50 -1.58 0.81 -3.66 2.39 -5.52 4.18 l-3.02 2.85 -3.20 0.21 c-7.91 0.56 -16.21 4.50 -23.41 11.11 -8.40 7.70 -14.91 20.25 -15.64 30.09 -0.32 4.57 1.09 8.12 3.80 9.53 1.37 0.70 2.81 0.07 5.27 -2.29 1.48 -1.41 2.11 -1.79 3.02 -1.79 0.88 0 1.16 0.14 1.16 0.63 0 1.02 1.83 3.62 3.66 5.24 5.77 5.06 23.70 10.09 30.62 8.54 3.97 -0.88 4.99 -0.88 6.15 0.11 1.37 1.20 6.64 4.43 9.42 5.84 5.59 2.81 12.59 4.82 20.11 5.80 6.47 0.84 6.79 0.84 16.52 0.74 7.21 -0.07 9.74 -0.25 13.01 -0.81z"/>
 </g>
 <g fill="#f7e1d7">
  <path d="M223.66 283.82 c-0.21 -0.74 -0.49 -2.25 -0.63 -3.34 l-0.25 -2.04 -1.83 0 c-1.02 0 -3.80 0.14 -6.19 0.32 -2.39 0.21 -6.29 0.46 -8.61 0.56 l-4.29 0.25 0.07 -3.45 c0.04 -3.20 -0.04 -3.62 -0.91 -5.10 -1.20 -2 -5.17 -5.77 -7.80 -7.31 -5.13 -3.06 -13.08 -4.71 -18.91 -3.97 -3.38 0.42 -10.05 1.97 -10.51 2.43 -0.18 0.18 4.18 0.28 9.63 0.28 9.88 0 9.91 0 13.08 0.98 5.80 1.83 10.58 4.99 12.13 8.02 1.02 1.97 0.95 5.98 -0.11 7.88 -0.67 1.20 -0.98 1.41 -2.11 1.51 -1.23 0.11 -1.30 0.07 -1.30 -0.95 0 -0.60 0.32 -1.58 0.70 -2.21 0.39 -0.63 0.70 -1.27 0.70 -1.41 0 -0.11 -0.74 0 -1.65 0.28 -12.16 3.69 -26.82 5.87 -39.30 5.87 -10.37 -0.04 -18.98 -1.34 -25.91 -3.97 -1.93 -0.70 -2.04 -0.81 -2.04 -1.97 0 -0.77 0.35 -1.72 1.02 -2.64 0.60 -0.77 1.30 -2.25 1.65 -3.23 0.32 -1.02 1.27 -3.38 2.11 -5.24 2.81 -6.22 3.20 -9.14 1.72 -13.50 -2.60 -7.73 -9.32 -13.46 -18.49 -15.82 -2.18 -0.56 -4.08 -0.53 -9.18 0.07 l-1.69 0.21 0 -1.23 c0 -3.09 3.41 -11.21 6.54 -15.57 1.69 -2.39 5.10 -5.66 7.49 -7.21 1.30 -0.84 1.97 -1.02 3.76 -1.02 l2.14 0 1.27 1.90 c2.04 3.09 7.03 8.65 10.20 11.39 9.28 8.02 17.61 11.67 30.23 13.29 5.24 0.67 13.82 0.53 16.24 -0.25 1.30 -0.42 0.91 -0.49 -4.92 -0.70 -20.67 -0.84 -31.92 -4.85 -42.61 -15.22 -3.55 -3.48 -3.66 -3.62 -3.55 -4.96 0.11 -1.37 0.21 -1.44 2.74 -2.81 3.97 -2.11 9.21 -7.45 11.18 -11.43 2.85 -5.70 3.59 -11.53 2.21 -16.98 -1.72 -6.68 -5.55 -11.64 -10.97 -14.24 -4.96 -2.39 -8.33 -2.67 -12.90 -1.16 -1.20 0.42 -2.64 0.74 -3.23 0.74 -0.95 0 -1.05 -0.11 -1.05 -1.02 0 -1.27 2.25 -6.75 3.02 -7.31 0.42 -0.32 0.46 -0.56 0.18 -1.13 -0.60 -1.09 -0.49 -1.51 0.28 -1.13 0.60 0.32 0.67 0.25 0.60 -0.77 -0.04 -1.02 0.07 -1.13 1.20 -1.30 1.13 -0.18 1.16 -0.25 0.42 -0.49 -0.91 -0.32 -0.70 -0.91 0.32 -0.91 0.88 0 0.84 -0.56 -0.04 -1.05 -0.63 -0.35 -0.70 -0.74 -0.70 -3.80 0 -9.91 2.60 -20.39 7.56 -30.48 3.13 -6.40 6.22 -11.18 9.32 -14.31 3.16 -3.20 4.61 -3.62 11.43 -3.34 12.45 0.46 26.30 6.33 36.14 15.33 1.86 1.76 2 1.97 2 3.45 0 1.48 0.07 1.58 0.81 1.37 4.85 -1.44 6.15 -1.62 10.97 -1.62 5.91 0 9.53 0.77 14.94 3.16 1.83 0.81 3.90 1.69 4.57 1.97 l1.23 0.49 -1.34 -1.20 c-1.41 -1.23 -7.95 -4.78 -8.89 -4.78 -0.42 0 -0.49 -0.35 -0.42 -1.48 0.11 -1.51 0.11 -1.51 4.64 -4.57 7.84 -5.24 17.65 -9.91 25.80 -12.27 3.09 -0.91 4.61 -1.13 8.54 -1.27 4.39 -0.18 4.85 -0.14 6.26 0.56 2.04 1.05 4.22 3.41 6.89 7.42 6.01 9.04 8.86 17.54 10.72 32.10 0.84 6.64 0.88 7.77 0.18 8.33 -0.95 0.77 -0.39 1.20 1.41 1.09 l1.72 -0.11 -0.84 0.74 c-0.84 0.67 -0.84 0.70 -0.11 0.49 0.63 -0.14 0.88 0 1.16 0.77 0.21 0.53 0.28 1.27 0.14 1.65 -0.18 0.60 -0.11 0.67 0.53 0.46 0.42 -0.11 0.74 -0.11 0.74 0.07 0 0.63 -0.60 1.13 -2.04 1.69 -1.69 0.67 -1.79 1.34 -0.21 1.51 0.95 0.14 1.23 0.53 3.41 4.99 1.37 2.81 2.36 5.31 2.36 5.94 0 1.05 -0.04 1.09 -1.69 1.09 -5.20 0 -12.90 4.75 -16.66 10.30 -5.91 8.68 -4.96 17.37 2.71 25.07 2.95 2.95 7.42 5.94 9.60 6.33 1.09 0.21 1.16 0.32 1.05 1.48 -0.11 1.13 -0.53 1.58 -3.62 4.22 -11.57 9.74 -22.11 14.20 -47.64 20.25 l-2.29 0.53 3.34 -0.14 c2.95 -0.14 8.65 -1.13 13.36 -2.32 4.54 -1.16 11.67 -3.30 13.43 -4.04 1.23 -0.49 2.67 -0.84 3.69 -0.84 1.62 0.04 1.76 0.11 3.09 1.83 2.57 3.27 3.34 4.64 3.34 5.84 0 1.05 -0.07 1.13 -1.23 1.13 -0.67 0 -1.23 0.04 -1.23 0.11 0 0.04 0.25 1.30 0.53 2.81 0.81 4.25 0.70 13.11 -0.18 16.59 -1.97 7.63 -7.10 13.82 -14.55 17.40 -4.54 2.18 -7.63 2.88 -13.29 2.95 -4.43 0.04 -4.85 0.11 -4.85 0.67 0 0.53 -0.25 0.63 -1.30 0.53 l-1.34 -0.11 -0.11 -3.02 c-0.07 -2.39 0.07 -3.45 0.63 -4.99 2.04 -5.41 7.21 -10.86 15.96 -16.77 1.86 -1.27 3.16 -2.32 2.92 -2.39 -0.74 -0.14 -5.45 2.14 -8.51 4.15 -3.59 2.36 -8.72 7.52 -10.79 10.90 -2.92 4.71 -3.87 9.11 -2.60 12.13 0.32 0.70 0.56 1.76 0.56 2.32 0 0.95 -0.11 1.02 -1.34 1.02 -1.27 0 -1.41 -0.11 -1.76 -1.30z m26.09 -83.81 c0.81 -0.21 2.18 -0.95 2.99 -1.65 l1.51 -1.30 -2.11 0.11 c-2.81 0.18 -3.59 -0.53 -3.59 -3.16 0 -2.57 0.56 -3.09 3.38 -3.09 2.64 0 2.95 0.35 2.95 3.23 l0.04 1.86 0.53 -0.98 c0.91 -1.69 1.51 -5.27 1.16 -7.10 -0.91 -4.92 -4.68 -8.96 -8.40 -8.96 -1.83 0 -3.83 1.09 -5.55 2.95 -1.69 1.83 -2.36 3.16 -2.92 5.87 -1.02 4.68 2.18 10.55 6.57 12.09 1.69 0.60 1.62 0.60 3.45 0.14z m-62.44 -1.62 c2.21 -1.90 3.41 -3.73 4.15 -6.33 1.27 -4.61 -0.53 -9.42 -4.46 -12.13 -2.04 -1.37 -3.76 -1.55 -5.84 -0.63 -6.79 2.99 -8.44 12.73 -3.09 18.11 3.06 3.06 6.36 3.41 9.25 0.98z m23.73 -0.14 c0.81 -0.42 2.21 -1.37 3.13 -2.11 2.21 -1.86 3.94 -1.90 6.01 -0.14 0.77 0.67 2.11 1.58 2.99 1.97 1.37 0.70 1.58 0.70 2.07 0.21 0.49 -0.49 0.32 -0.67 -1.79 -1.69 -1.30 -0.63 -3.23 -1.93 -4.29 -2.85 l-1.97 -1.69 -1.93 1.76 c-1.09 0.98 -3.06 2.36 -4.36 3.02 -2.32 1.16 -2.71 1.51 -2.18 2 0.35 0.39 0.74 0.28 2.32 -0.49z m-68.13 -56.04 c11.14 -2.60 25.31 -9.77 31.01 -15.71 3.23 -3.38 3.34 -4.85 0.60 -7.49 -1.93 -1.83 -5.17 -3.59 -9.28 -5.03 -11.25 -3.94 -16.98 -2.57 -22.39 5.38 -3.30 4.89 -7.14 13.85 -7.66 17.96 -0.32 2.18 0.35 3.69 2.04 4.71 1.37 0.84 2.64 0.88 5.70 0.18z m119.78 -2.64 c1.58 -0.46 3.34 -2.39 3.66 -4.01 0.28 -1.58 -1.13 -7.07 -2.81 -11.04 -2.67 -6.22 -5.52 -10.09 -8.68 -11.85 -1.76 -0.98 -2.18 -1.05 -5.24 -1.02 -2.67 0 -3.90 0.21 -6.15 0.95 -4.85 1.69 -9.25 4.08 -11.64 6.40 -2.43 2.32 -2.92 3.48 -2.25 5.13 1.62 3.83 12.48 10.58 22.32 13.82 5.84 1.93 8.30 2.29 10.79 1.62z"/>
  <path d="M177.93 195.96 c-0.81 -1.02 -0.98 -3.23 -0.39 -4.39 0.32 -0.56 0.77 -0.67 2.74 -0.67 1.41 0 2.57 0.18 2.81 0.42 0.25 0.25 0.42 1.30 0.42 2.39 0 2.57 -0.60 3.16 -3.09 3.16 -1.51 0 -1.90 -0.14 -2.50 -0.91z"/>
  <path d="M104.77 275.98 c-9.56 -1.72 -18.56 -5.63 -20.21 -8.79 -0.28 -0.56 -0.63 -1.97 -0.77 -3.13 -0.28 -2.81 -1.16 -4.25 -2.57 -4.25 -0.98 0 -1.05 -0.07 -1.05 -1.37 0 -2.36 2.25 -7.88 5.20 -12.87 3.13 -5.24 8.82 -11.81 13.04 -15.01 1.79 -1.34 2.53 -1.69 3.59 -1.69 1.30 0 1.37 0.04 1.37 1.16 0 0.63 -0.39 2.67 -0.88 4.57 -1.20 4.75 -1.44 8.75 -0.74 12.97 1.48 9.04 5.59 17.02 12.52 24.29 1.97 2.11 2.46 2.85 2.46 3.73 l0 1.09 -4.11 -0.04 c-2.36 0 -5.73 -0.32 -7.84 -0.67z"/>
 </g>
 <g fill="#000000">
  <path d="M156.80 292.29 c-10.58 -0.91 -19.34 -3.09 -26.09 -6.50 -2.74 -1.41 -8.02 -4.64 -9.42 -5.80 -0.98 -0.84 -1.13 -0.88 -2.36 -0.42 -2.18 0.77 -10.05 0.56 -14.87 -0.39 -8.19 -1.62 -16 -4.75 -19.55 -7.88 -1.83 -1.62 -3.66 -4.22 -3.66 -5.24 0 -0.35 -0.04 -0.63 -0.11 -0.63 -0.07 0 -0.95 0.81 -1.97 1.79 -3.62 3.48 -6.75 3.69 -9.32 0.67 -2.25 -2.71 -2.57 -9.35 -0.77 -16.31 0.98 -3.87 4.15 -10.76 6.57 -14.34 8.09 -12.02 19.93 -19.76 31.39 -20.57 l3.20 -0.21 3.02 -2.85 c1.86 -1.79 3.94 -3.38 5.52 -4.18 1.41 -0.74 2.53 -1.37 2.53 -1.44 0 -0.07 -0.77 -1.62 -1.72 -3.48 -5.84 -11.50 -6.89 -22.57 -3.13 -33.22 0.60 -1.69 1.62 -4.11 2.25 -5.41 0.67 -1.30 1.20 -2.53 1.20 -2.67 0 -0.18 -0.74 -0.60 -1.65 -0.95 -2.21 -0.84 -2.99 -1.51 -2.85 -2.60 0.11 -0.77 0.32 -0.91 1.44 -1.02 1.30 -0.11 5.03 0.91 7.03 1.93 1.20 0.60 1.34 2.21 0.25 2.95 -0.63 0.46 -3.38 6.29 -2.95 6.29 0.11 0 0.53 -0.18 0.91 -0.39 0.56 -0.32 0.67 -0.28 0.53 0.11 -1.05 2.57 -2.46 7.66 -2.92 10.55 -0.67 4.15 -0.35 7.70 1.13 12.83 1.65 5.84 7.24 15.96 11.57 21.06 1.44 1.69 1.51 1.83 0.95 2.39 -0.56 0.56 -0.39 0.81 3.13 4.22 3.83 3.69 8.47 7.10 12.59 9.18 7.28 3.66 17.02 5.63 29.85 6.05 6.01 0.18 6.82 0.28 7.10 0.84 0.46 0.81 -0.28 1.55 -2.04 2.11 -0.70 0.21 -4.08 0.46 -7.49 0.56 -14.59 0.42 -25.88 -2.64 -36.11 -9.77 -5.10 -3.59 -11.85 -10.44 -15.08 -15.29 -1.09 -1.62 -1.41 -1.90 -2.36 -1.90 -2.11 0 -7.35 4.22 -10.20 8.23 -2.07 2.88 -4.54 7.84 -5.63 11.39 -0.49 1.62 -0.91 2.99 -0.91 3.09 0 0.11 0.32 0.07 0.74 -0.04 0.60 -0.21 0.70 -0.14 0.56 0.42 -3.20 10.83 1.51 24.57 11.74 34.38 7.10 6.82 15.29 11.71 23.45 14.06 13.15 3.76 35.82 3.87 45.46 0.21 4.32 -1.65 8.75 -5.73 9.35 -8.54 0.11 -0.56 0.32 -0.98 0.49 -0.98 0.63 0 0.28 2.32 -0.56 3.80 -0.46 0.81 -0.70 1.41 -0.49 1.30 0.70 -0.46 1.72 -3.02 1.72 -4.39 0 -4.11 -5.03 -8.33 -12.83 -10.79 -3.16 -0.98 -3.20 -0.98 -13.11 -0.98 -8.72 0 -9.98 -0.07 -10.27 -0.56 -0.84 -1.51 2 -2.74 9.28 -4.01 10.79 -1.86 21.94 1.34 28.37 8.12 1.09 1.16 2.21 2.57 2.53 3.16 0.81 1.58 1.30 4.99 0.98 6.75 -0.25 1.30 -0.21 1.48 0.35 1.48 0.39 0 0.67 0.07 0.67 0.14 0 0.39 -1.23 2.99 -1.79 3.80 -0.39 0.49 -0.67 1.02 -0.67 1.20 0 0.28 19.79 -0.11 20.99 -0.42 0.77 -0.21 0.81 -0.32 0.56 -3.16 -0.25 -3.48 0.39 -4.15 0.74 -0.81 0.25 2.46 0.88 4.89 1.30 4.89 0.14 0 0.04 -0.60 -0.28 -1.30 -0.88 -2.04 -0.77 -6.43 0.21 -9.25 2.53 -7.31 10.58 -15.33 19.27 -19.13 3.09 -1.37 4.36 -1.55 5.03 -0.74 0.88 1.05 0.07 2.07 -3.38 4.39 -8.68 5.84 -13.92 11.36 -15.96 16.73 -0.74 2.04 -0.95 5.55 -0.35 5.94 0.25 0.14 0.28 -0.11 0.14 -0.70 -0.35 -1.48 0.39 -0.95 1.37 0.88 0.98 1.86 3.59 3.62 6.29 4.18 6.29 1.37 16.42 -0.88 21.76 -4.85 3.80 -2.81 6.47 -6.82 8.40 -12.62 2.14 -6.47 2.11 -11.78 -0.07 -18.70 -0.91 -2.92 -3.80 -8.47 -5.63 -10.90 -1.69 -2.21 -1.34 -3.30 0.39 -1.16 0.60 0.74 1.41 1.72 1.83 2.21 l0.74 0.88 -0.74 -1.23 c-1.41 -2.39 -4.08 -5.59 -4.71 -5.63 -0.35 0 -1.51 0.39 -2.64 0.84 -2.04 0.84 -9.95 3.20 -14.13 4.18 -7.24 1.72 -10.13 2.18 -14.41 2.18 -4.29 0 -4.39 -0.04 -4.50 -0.77 -0.14 -1.05 0.39 -1.27 6.54 -2.57 9.46 -2.04 21.48 -5.84 27.39 -8.61 6.54 -3.09 13.61 -7.77 18.74 -12.45 1.65 -1.51 1.83 -1.76 1.16 -1.79 -0.46 0 -0.81 -0.07 -0.81 -0.18 0 -0.11 1.09 -1.55 2.46 -3.23 4.15 -5.13 6.22 -10.02 7.03 -16.56 0.70 -5.48 -0.84 -14.34 -3.62 -21.27 l-1.27 -3.13 0.84 0.21 0.84 0.21 -1.13 -2.36 c-3.66 -7.66 -3.55 -7.45 -4.46 -7.49 -1.20 0 -1.76 -0.60 -1.76 -1.83 0 -1.23 1.05 -1.83 5.24 -2.78 3.97 -0.91 5.80 -0.81 5.94 0.32 0.18 1.23 -0.74 2 -3.20 2.71 -1.20 0.35 -2.21 0.70 -2.29 0.74 -0.07 0.04 0.77 1.41 1.90 3.02 3.48 5.06 6.22 11.64 7.73 18.56 0.53 2.36 0.67 4.46 0.67 10.02 0 6.26 -0.11 7.38 -0.84 10.02 -2.25 8.33 -7.66 15.79 -16.31 22.39 -3.13 2.39 -9.95 6.79 -11.25 7.24 -0.25 0.07 0.14 0.74 1.05 1.72 7.17 7.88 11.07 18.32 10.51 28.41 -0.46 8.61 -3.90 16.80 -9.39 22.18 -3.52 3.45 -8.51 5.98 -14.84 7.42 -2.57 0.60 -4.39 0.77 -9.04 0.77 -5.17 0.04 -6.05 -0.07 -8.09 -0.77 -1.27 -0.46 -2.88 -1.20 -3.59 -1.65 -1.23 -0.81 -1.41 -0.84 -4.22 -0.53 -3.62 0.46 -22.89 1.09 -29.99 1.02 -4.57 -0.04 -5.55 0.07 -7.38 0.70 -4.64 1.69 -9.46 2.21 -20.21 2.32 -5.52 0.07 -10.72 0.04 -11.60 -0.04z m-43.56 -19.30 c-11 -11.57 -15.29 -25.84 -11.81 -39.38 0.49 -1.93 0.88 -3.55 0.88 -3.62 0 -0.07 -0.32 -0.04 -0.70 0.11 -0.67 0.21 -0.63 0.14 0.14 -2.18 0.46 -1.34 1.16 -3.09 1.58 -3.94 0.42 -0.81 0.70 -1.58 0.63 -1.65 -0.28 -0.28 -3.48 0.91 -6.75 2.50 -10.27 4.99 -19.41 16.24 -22.85 28.13 -1.34 4.71 -1.65 10.72 -0.49 10.72 0.18 0 1.16 -0.91 2.18 -2 2.88 -3.16 3.80 -3.97 4.50 -3.97 0.35 0 0.67 0.25 0.67 0.53 0 0.35 0.35 0.53 1.05 0.53 1.41 0 2.29 1.44 2.57 4.25 0.14 1.16 0.49 2.57 0.77 3.13 2.14 4.18 17.02 9.39 27.04 9.46 l3.13 0.04 -2.53 -2.64z"/>
  <path d="M245.25 200.92 c-4.39 -1.55 -7.31 -7 -6.79 -12.59 0.35 -3.52 1.20 -5.41 3.38 -7.66 2.46 -2.53 4.96 -3.41 7.80 -2.81 2.46 0.53 3.52 1.16 5.20 3.06 3.27 3.73 4.01 9.77 1.79 14.84 -0.98 2.18 -3.80 4.82 -5.77 5.31 -2.07 0.49 -3.94 0.46 -5.63 -0.14z m7.95 -5.34 c1.34 -1.20 0.56 -3.62 -1.20 -3.62 -2.14 0 -3.13 2.07 -1.69 3.52 0.84 0.84 2 0.91 2.88 0.11z"/>
  <path d="M179.79 200.43 c-2 -0.91 -3.94 -2.95 -5.03 -5.27 -0.81 -1.72 -0.91 -2.43 -0.91 -5.66 0 -3.34 0.11 -3.90 1.02 -5.87 1.90 -4.11 5.38 -6.36 9.28 -5.98 2.46 0.21 3.80 0.84 5.55 2.64 1.97 1.97 3.06 4.64 3.23 7.91 0.28 4.89 -1.13 8.33 -4.61 11.29 -1.65 1.37 -1.83 1.44 -4.39 1.55 -2.07 0.07 -3.02 -0.07 -4.15 -0.60z m2.04 -5.20 c0.70 -0.63 0.84 -2.21 0.21 -2.85 -0.70 -0.70 -3.02 -0.53 -3.45 0.25 -0.49 0.95 -0.46 1.23 0.39 2.29 0.81 1.05 1.90 1.16 2.85 0.32z"/>
  <path d="M207.63 199.72 c-0.35 -0.39 -0.56 -1.09 -0.49 -1.69 0.07 -0.81 0.49 -1.20 2.57 -2.29 1.37 -0.70 3.38 -2.07 4.46 -3.06 2.60 -2.36 3.45 -2.36 6.05 -0.11 1.05 0.95 2.95 2.21 4.22 2.81 2.60 1.27 3.23 2.36 2.14 3.59 -1.30 1.44 -4.54 0.60 -7.45 -1.93 -0.81 -0.67 -1.62 -1.23 -1.86 -1.23 -0.21 0 -1.13 0.63 -2.04 1.37 -1.97 1.62 -4.99 3.20 -6.15 3.20 -0.46 0 -1.13 -0.32 -1.44 -0.67z"/>
  <path d="M122.13 155.88 c-4.11 -2.57 -4.43 -2.85 -4.29 -4.15 0.07 -0.88 0.28 -1.13 1.05 -1.20 0.53 -0.07 1.41 0.14 2 0.46 l1.09 0.56 0 -2.11 c0 -5.70 2.11 -16.07 4.57 -22.29 3.20 -8.16 8.93 -17.89 13.01 -22.01 1.48 -1.48 2.92 -2.57 4.50 -3.30 10.02 -4.68 36.11 3.69 46.30 14.91 0.77 0.84 1.83 2.07 2.29 2.71 l0.91 1.13 2.95 -0.74 c2.60 -0.67 3.66 -0.74 8.33 -0.60 l5.31 0.18 2.07 -2.07 c4.32 -4.43 16.66 -11.60 25.59 -14.91 6.26 -2.29 11.14 -3.41 15.29 -3.45 3.34 -0.04 3.90 0.07 5.77 0.95 5.63 2.64 13.57 14.13 17.02 24.68 1.93 5.84 3.23 13.89 3.23 19.86 0 1.55 0.07 2.81 0.21 2.81 0.11 0 1.27 -0.56 2.60 -1.27 2.92 -1.51 4.01 -1.48 4.15 0.07 0.14 1.30 -0.74 2.07 -5.80 5.20 -3.20 1.97 -4.78 2.43 -5.66 1.55 -0.63 -0.63 -0.49 -2.07 0.28 -2.92 l0.70 -0.77 -0.70 -5.59 c-1.86 -14.59 -4.71 -23.10 -10.72 -32.13 -2.67 -4.01 -4.85 -6.36 -6.89 -7.42 -1.37 -0.67 -1.90 -0.74 -5.24 -0.56 -8.40 0.42 -22.08 6.01 -33.26 13.54 -4.32 2.95 -5.38 3.94 -4.22 3.94 0.91 0 7.45 3.48 8.96 4.82 1.62 1.37 1.90 2.64 0.74 3.27 -0.56 0.28 -1.16 0.18 -2.74 -0.49 -1.09 -0.46 -3.55 -1.48 -5.41 -2.29 -5.45 -2.32 -8.75 -2.95 -14.17 -2.74 -3.66 0.11 -5.17 0.35 -7.56 1.09 -2.39 0.74 -3.16 0.84 -3.83 0.56 -0.74 -0.32 -0.81 -0.56 -0.63 -1.76 0.18 -1.34 0.11 -1.48 -1.79 -3.20 -4.99 -4.57 -11.85 -8.86 -18 -11.25 -8.75 -3.45 -18.49 -4.99 -23.03 -3.69 -1.72 0.53 -2.43 0.98 -4.39 2.95 -1.27 1.30 -3.30 3.87 -4.54 5.70 -2.85 4.29 -7.03 12.87 -8.58 17.58 -2.29 6.82 -3.76 14.94 -3.76 20.46 0 2 0.11 2.43 0.70 2.74 1.79 0.95 1.58 3.16 -0.32 3.16 -0.60 0 -2.25 -0.77 -4.11 -1.97z"/>
 </g>
 <g fill="#e8caba">
  <path d="M157.15 287.54 c-8.44 -0.60 -15.75 -2.14 -21.45 -4.61 -3.90 -1.65 -9.14 -4.71 -9.14 -5.34 0 -0.21 0.21 -0.84 0.46 -1.37 0.32 -0.70 0.67 -0.95 1.44 -0.95 0.88 0 0.95 0.07 0.53 0.56 -0.35 0.46 -0.35 0.60 0.07 0.88 0.88 0.56 6.71 2.36 10.16 3.06 14.70 3.13 34.59 1.51 55.37 -4.50 1.34 -0.39 2.67 -0.70 2.88 -0.70 0.81 0 0.49 2.07 -0.63 4.25 -0.91 1.72 -1.58 2.46 -3.59 3.83 -1.34 0.95 -3.34 2.07 -4.43 2.50 -6.19 2.36 -18.88 3.30 -31.68 2.39z"/>
  <path d="M236.21 286.03 c-2.14 -0.56 -4.64 -2.07 -5.41 -3.27 -0.35 -0.53 -0.67 -1.55 -0.74 -2.29 l-0.14 -1.37 1.69 0.28 c0.91 0.14 3.16 0.25 4.99 0.21 10.20 -0.21 20.11 -6.33 24.43 -15.08 3.38 -6.79 3.59 -16.21 0.63 -25.56 -1.05 -3.41 -0.70 -4.11 0.98 -2 0.67 0.81 1.62 1.97 2.11 2.57 0.53 0.63 1.44 2.14 2.07 3.41 4.15 8.23 4.89 17.37 2.11 25.73 -3.34 10.02 -9.04 15.01 -19.51 17.19 -3.69 0.77 -10.69 0.88 -13.22 0.18z"/>
  <path d="M199.93 283.22 c0.81 -0.91 1.83 -2.36 2.21 -3.20 0.84 -1.79 0.14 -1.62 11.60 -2.29 3.59 -0.21 7.31 -0.42 8.26 -0.53 l1.79 -0.18 0.39 2.74 c0.21 1.48 0.49 3.06 0.63 3.45 0.18 0.63 0.07 0.77 -0.77 0.98 -0.53 0.11 -6.50 0.32 -13.29 0.42 l-12.30 0.25 1.48 -1.65z"/>
  <path d="M72.53 264.48 c-0.84 -2.04 -0.46 -8.47 0.77 -12.59 2.14 -7.28 6.47 -14.55 11.95 -20.07 5.24 -5.27 11.25 -8.96 17.23 -10.55 1.65 -0.46 4.04 -0.67 4.04 -0.35 0 0.07 -0.70 1.44 -1.55 3.06 -0.84 1.62 -1.76 3.62 -2 4.46 -0.25 0.81 -0.63 1.48 -0.84 1.48 -0.81 0 -4.96 3.45 -7.88 6.54 -5.77 6.08 -9.81 12.52 -12.20 19.30 -0.60 1.79 -1.37 3.20 -2.04 3.90 -0.60 0.56 -2.18 2.21 -3.48 3.59 -1.34 1.41 -2.67 2.53 -2.95 2.53 -0.25 0 -0.74 -0.60 -1.05 -1.30z"/>
  <path d="M136.16 143.09 c-1.79 -1.09 -2.32 -2.50 -2.11 -5.63 0.21 -3.38 1.72 -7.88 4.32 -13.08 3.55 -7.10 6.61 -10.83 10.27 -12.52 2.67 -1.23 7.84 -1.51 11.92 -0.60 7.24 1.62 14.31 5.06 16.17 7.88 1.76 2.71 1.23 5.27 -1.76 8.40 -8.54 8.89 -33.40 18.84 -38.81 15.54z"/>
  <path d="M256.29 140.63 c-5.52 -1.16 -15.26 -5.31 -20.57 -8.79 -6.40 -4.18 -8.40 -7 -7.52 -10.37 0.84 -3.20 6.79 -7.35 14.20 -9.91 2.46 -0.84 3.34 -0.95 7.21 -0.98 4.22 0 4.46 0.04 6.29 1.05 3.16 1.76 6.01 5.63 8.68 11.85 2.81 6.61 3.66 12.76 2.04 14.94 -1.48 1.97 -2.39 2.36 -5.66 2.43 -1.72 0.07 -3.80 -0.04 -4.68 -0.21z"/>
 </g>
 <g fill="#eecca1">
  <path d="M123.89 276.08 c-6.71 -5.06 -11.60 -10.55 -14.63 -16.45 -3.27 -6.43 -4.36 -11.29 -4.04 -18.35 0.25 -5.73 0.32 -5.98 2.14 -6.47 2.04 -0.60 6.71 -0.49 9.32 0.18 11.43 2.92 19.37 11.60 19.37 21.20 0 3.45 -0.60 5.84 -2.60 10.23 -0.84 1.86 -1.79 4.22 -2.11 5.24 -0.35 0.98 -1.09 2.50 -1.72 3.34 -0.60 0.84 -1.13 1.58 -1.13 1.69 -0.04 0.35 -1.05 1.76 -1.27 1.76 -0.11 0 -1.62 -1.05 -3.34 -2.36z"/>
  <path d="M130.85 214.88 c-4.36 -5.20 -9.81 -15.15 -11.50 -20.99 -1.48 -5.13 -1.83 -9.67 -1.16 -14.34 0.32 -2.18 0.98 -5.24 1.48 -6.82 0.91 -2.78 0.98 -2.88 2.43 -3.41 2.64 -0.95 4.25 -1.27 6.64 -1.27 3.34 0 5.63 0.56 9.04 2.18 7.35 3.52 11.64 11.18 11.64 20.85 0 4.82 -0.81 8.30 -2.88 12.48 -1.23 2.46 -2.11 3.62 -5.03 6.50 -3.16 3.20 -5.24 4.68 -9 6.43 -0.14 0.07 -0.88 -0.67 -1.65 -1.62z"/>
  <path d="M274.71 212.87 c-9.39 -4.89 -14.87 -14.20 -13.50 -22.85 0.84 -5.20 2.74 -8.86 6.68 -12.87 2.85 -2.85 5.91 -4.89 9 -5.98 2.46 -0.88 5.24 -1.41 5.94 -1.16 0.67 0.28 2.46 4.96 3.52 9.39 3.13 12.83 1.30 23.41 -5.48 31.99 -1.58 1.97 -2.39 2.71 -2.99 2.71 -0.42 0 -1.86 -0.56 -3.16 -1.23z"/>
 </g>
</svg>